<?xml version="1.0" encoding="UTF-8" ?>
<svg version="1.1" width="32" height="32" xmlns="http://www.w3.org/2000/svg" shape-rendering="crispEdges">
<rect x="14" y="0" width="1" height="1" fill="#000000" />
<rect x="15" y="0" width="1" height="1" fill="#000000" />
<rect x="16" y="0" width="1" height="1" fill="#000000" />
<rect x="17" y="0" width="1" height="1" fill="#000000" />
<rect x="13" y="1" width="1" height="1" fill="#000000" />
<rect x="14" y="1" width="1" height="1" fill="#425BFF" />
<rect x="15" y="1" width="1" height="1" fill="#425BFF" />
<rect x="16" y="1" width="1" height="1" fill="#425BFF" />
<rect x="17" y="1" width="1" height="1" fill="#425BFF" />
<rect x="18" y="1" width="1" height="1" fill="#000000" />
<rect x="13" y="2" width="1" height="1" fill="#000000" />
<rect x="14" y="2" width="1" height="1" fill="#425BFF" />
<rect x="15" y="2" width="1" height="1" fill="#425BFF" />
<rect x="16" y="2" width="1" height="1" fill="#425BFF" />
<rect x="17" y="2" width="1" height="1" fill="#425BFF" />
<rect x="18" y="2" width="1" height="1" fill="#000000" />
<rect x="13" y="3" width="1" height="1" fill="#000000" />
<rect x="14" y="3" width="1" height="1" fill="#465BFF" />
<rect x="15" y="3" width="1" height="1" fill="#425BFF" />
<rect x="16" y="3" width="1" height="1" fill="#425BFF" />
<rect x="17" y="3" width="1" height="1" fill="#435DFF" />
<rect x="18" y="3" width="1" height="1" fill="#000000" />
<rect x="13" y="4" width="1" height="1" fill="#000000" />
<rect x="14" y="4" width="1" height="1" fill="#31C0DF" />
<rect x="15" y="4" width="1" height="1" fill="#FFFFFD" />
<rect x="16" y="4" width="1" height="1" fill="#FFFFFD" />
<rect x="17" y="4" width="1" height="1" fill="#31C0DF" />
<rect x="18" y="4" width="1" height="1" fill="#000000" />
<rect x="14" y="5" width="1" height="1" fill="#000506" />
<rect x="15" y="5" width="1" height="1" fill="#28CCCB" />
<rect x="16" y="5" width="1" height="1" fill="#27CBC8" />
<rect x="17" y="5" width="1" height="1" fill="#000401" />
<rect x="13" y="6" width="1" height="1" fill="#000000" />
<rect x="14" y="6" width="1" height="1" fill="#27CBC8" />
<rect x="15" y="6" width="1" height="1" fill="#27CBC8" />
<rect x="16" y="6" width="1" height="1" fill="#27CBC8" />
<rect x="17" y="6" width="1" height="1" fill="#27CBC8" />
<rect x="18" y="6" width="1" height="1" fill="#000000" />
<rect x="12" y="7" width="1" height="1" fill="#000100" />
<rect x="13" y="7" width="1" height="1" fill="#24CCCA" />
<rect x="14" y="7" width="1" height="1" fill="#20CECC" />
<rect x="15" y="7" width="1" height="1" fill="#FFFFFD" />
<rect x="16" y="7" width="1" height="1" fill="#E3EBFF" />
<rect x="17" y="7" width="1" height="1" fill="#27CBC8" />
<rect x="18" y="7" width="1" height="1" fill="#27CBC8" />
<rect x="19" y="7" width="1" height="1" fill="#000200" />
<rect x="11" y="8" width="1" height="1" fill="#000000" />
<rect x="12" y="8" width="1" height="1" fill="#21CBCD" />
<rect x="13" y="8" width="1" height="1" fill="#27CBC8" />
<rect x="14" y="8" width="1" height="1" fill="#FBFFFF" />
<rect x="15" y="8" width="1" height="1" fill="#FFFFFF" />
<rect x="16" y="8" width="1" height="1" fill="#E2ECFF" />
<rect x="17" y="8" width="1" height="1" fill="#E2ECFF" />
<rect x="18" y="8" width="1" height="1" fill="#27CBC8" />
<rect x="19" y="8" width="1" height="1" fill="#21CCC9" />
<rect x="20" y="8" width="1" height="1" fill="#000000" />
<rect x="11" y="9" width="1" height="1" fill="#000000" />
<rect x="12" y="9" width="1" height="1" fill="#23CECD" />
<rect x="13" y="9" width="1" height="1" fill="#24CCCC" />
<rect x="14" y="9" width="1" height="1" fill="#FDFFFB" />
<rect x="15" y="9" width="1" height="1" fill="#FFFFFD" />
<rect x="16" y="9" width="1" height="1" fill="#E2ECFF" />
<rect x="17" y="9" width="1" height="1" fill="#E2ECFF" />
<rect x="18" y="9" width="1" height="1" fill="#27CBC8" />
<rect x="19" y="9" width="1" height="1" fill="#27CBC8" />
<rect x="20" y="9" width="1" height="1" fill="#000000" />
<rect x="10" y="10" width="1" height="1" fill="#000000" />
<rect x="11" y="10" width="1" height="1" fill="#25CBCC" />
<rect x="12" y="10" width="1" height="1" fill="#24CCCA" />
<rect x="13" y="10" width="1" height="1" fill="#E2EBFF" />
<rect x="14" y="10" width="1" height="1" fill="#FFFDFF" />
<rect x="15" y="10" width="1" height="1" fill="#FFFFFF" />
<rect x="16" y="10" width="1" height="1" fill="#E2ECFF" />
<rect x="17" y="10" width="1" height="1" fill="#E2ECFF" />
<rect x="18" y="10" width="1" height="1" fill="#E2ECFF" />
<rect x="19" y="10" width="1" height="1" fill="#27CBC8" />
<rect x="20" y="10" width="1" height="1" fill="#24CDC8" />
<rect x="21" y="10" width="1" height="1" fill="#000000" />
<rect x="10" y="11" width="1" height="1" fill="#000000" />
<rect x="11" y="11" width="1" height="1" fill="#24CCCC" />
<rect x="12" y="11" width="1" height="1" fill="#25CBCC" />
<rect x="13" y="11" width="1" height="1" fill="#E1EFFF" />
<rect x="14" y="11" width="1" height="1" fill="#FFFFFF" />
<rect x="15" y="11" width="1" height="1" fill="#FFFFFF" />
<rect x="16" y="11" width="1" height="1" fill="#E3EBFF" />
<rect x="17" y="11" width="1" height="1" fill="#E2ECFF" />
<rect x="18" y="11" width="1" height="1" fill="#E0EDFF" />
<rect x="19" y="11" width="1" height="1" fill="#27CBC8" />
<rect x="20" y="11" width="1" height="1" fill="#27CBC8" />
<rect x="21" y="11" width="1" height="1" fill="#030001" />
<rect x="10" y="12" width="1" height="1" fill="#000000" />
<rect x="11" y="12" width="1" height="1" fill="#425BFF" />
<rect x="12" y="12" width="1" height="1" fill="#435BFF" />
<rect x="13" y="12" width="1" height="1" fill="#435DFF" />
<rect x="14" y="12" width="1" height="1" fill="#435DFF" />
<rect x="15" y="12" width="1" height="1" fill="#465AFF" />
<rect x="16" y="12" width="1" height="1" fill="#405CFF" />
<rect x="17" y="12" width="1" height="1" fill="#3F5DFF" />
<rect x="18" y="12" width="1" height="1" fill="#2C45B5" />
<rect x="19" y="12" width="1" height="1" fill="#3143C1" />
<rect x="20" y="12" width="1" height="1" fill="#2D47C0" />
<rect x="21" y="12" width="1" height="1" fill="#040008" />
<rect x="10" y="13" width="1" height="1" fill="#000000" />
<rect x="11" y="13" width="1" height="1" fill="#FEFCFB" />
<rect x="12" y="13" width="1" height="1" fill="#FFFDFC" />
<rect x="13" y="13" width="1" height="1" fill="#FFFDFC" />
<rect x="14" y="13" width="1" height="1" fill="#FFFEF8" />
<rect x="15" y="13" width="1" height="1" fill="#FFFEFA" />
<rect x="16" y="13" width="1" height="1" fill="#FFFEFA" />
<rect x="17" y="13" width="1" height="1" fill="#FCFFFA" />
<rect x="18" y="13" width="1" height="1" fill="#E5EBFB" />
<rect x="19" y="13" width="1" height="1" fill="#E6ECFF" />
<rect x="20" y="13" width="1" height="1" fill="#E6ECFF" />
<rect x="21" y="13" width="1" height="1" fill="#020000" />
<rect x="10" y="14" width="1" height="1" fill="#000000" />
<rect x="11" y="14" width="1" height="1" fill="#435CFF" />
<rect x="12" y="14" width="1" height="1" fill="#425BFF" />
<rect x="13" y="14" width="1" height="1" fill="#425BFF" />
<rect x="14" y="14" width="1" height="1" fill="#425BFF" />
<rect x="15" y="14" width="1" height="1" fill="#425BFF" />
<rect x="16" y="14" width="1" height="1" fill="#425BFF" />
<rect x="17" y="14" width="1" height="1" fill="#435BFE" />
<rect x="18" y="14" width="1" height="1" fill="#2F45BB" />
<rect x="19" y="14" width="1" height="1" fill="#3144BD" />
<rect x="20" y="14" width="1" height="1" fill="#3243BD" />
<rect x="21" y="14" width="1" height="1" fill="#000000" />
<rect x="10" y="15" width="1" height="1" fill="#000000" />
<rect x="11" y="15" width="1" height="1" fill="#435CFF" />
<rect x="12" y="15" width="1" height="1" fill="#425BFF" />
<rect x="13" y="15" width="1" height="1" fill="#425BFF" />
<rect x="14" y="15" width="1" height="1" fill="#425BFF" />
<rect x="15" y="15" width="1" height="1" fill="#425BFF" />
<rect x="16" y="15" width="1" height="1" fill="#425BFF" />
<rect x="17" y="15" width="1" height="1" fill="#425CFE" />
<rect x="18" y="15" width="1" height="1" fill="#2F45BB" />
<rect x="19" y="15" width="1" height="1" fill="#3144BD" />
<rect x="20" y="15" width="1" height="1" fill="#2F44BD" />
<rect x="21" y="15" width="1" height="1" fill="#000000" />
<rect x="10" y="16" width="1" height="1" fill="#000000" />
<rect x="11" y="16" width="1" height="1" fill="#435CFF" />
<rect x="12" y="16" width="1" height="1" fill="#425BFF" />
<rect x="13" y="16" width="1" height="1" fill="#425BFF" />
<rect x="14" y="16" width="1" height="1" fill="#425BFF" />
<rect x="15" y="16" width="1" height="1" fill="#425BFF" />
<rect x="16" y="16" width="1" height="1" fill="#425BFF" />
<rect x="17" y="16" width="1" height="1" fill="#425CFE" />
<rect x="18" y="16" width="1" height="1" fill="#2F44BD" />
<rect x="19" y="16" width="1" height="1" fill="#3144BD" />
<rect x="20" y="16" width="1" height="1" fill="#3243BD" />
<rect x="21" y="16" width="1" height="1" fill="#000000" />
<rect x="10" y="17" width="1" height="1" fill="#000000" />
<rect x="11" y="17" width="1" height="1" fill="#24CCCC" />
<rect x="12" y="17" width="1" height="1" fill="#24CDC8" />
<rect x="13" y="17" width="1" height="1" fill="#FCFFFF" />
<rect x="14" y="17" width="1" height="1" fill="#FFFFFD" />
<rect x="15" y="17" width="1" height="1" fill="#FDFFFF" />
<rect x="16" y="17" width="1" height="1" fill="#E5EAF8" />
<rect x="17" y="17" width="1" height="1" fill="#E1EEFF" />
<rect x="18" y="17" width="1" height="1" fill="#DEECFF" />
<rect x="19" y="17" width="1" height="1" fill="#27CBC8" />
<rect x="20" y="17" width="1" height="1" fill="#27CBC8" />
<rect x="21" y="17" width="1" height="1" fill="#060004" />
<rect x="10" y="18" width="1" height="1" fill="#000000" />
<rect x="11" y="18" width="1" height="1" fill="#26CDCB" />
<rect x="12" y="18" width="1" height="1" fill="#24CDC8" />
<rect x="13" y="18" width="1" height="1" fill="#FFFFFF" />
<rect x="14" y="18" width="1" height="1" fill="#FFFDFF" />
<rect x="15" y="18" width="1" height="1" fill="#FDFFFF" />
<rect x="16" y="18" width="1" height="1" fill="#FDFFFF" />
<rect x="17" y="18" width="1" height="1" fill="#DEEEFF" />
<rect x="18" y="18" width="1" height="1" fill="#DCEBFF" />
<rect x="19" y="18" width="1" height="1" fill="#27CBC8" />
<rect x="20" y="18" width="1" height="1" fill="#27CBC8" />
<rect x="21" y="18" width="1" height="1" fill="#000000" />
<rect x="10" y="19" width="1" height="1" fill="#000000" />
<rect x="11" y="19" width="1" height="1" fill="#26CCCD" />
<rect x="12" y="19" width="1" height="1" fill="#25CECB" />
<rect x="13" y="19" width="1" height="1" fill="#E9EBFC" />
<rect x="14" y="19" width="1" height="1" fill="#E3EEFF" />
<rect x="15" y="19" width="1" height="1" fill="#E2ECFF" />
<rect x="16" y="19" width="1" height="1" fill="#E2ECFF" />
<rect x="17" y="19" width="1" height="1" fill="#E0EDFF" />
<rect x="18" y="19" width="1" height="1" fill="#DCEBFF" />
<rect x="19" y="19" width="1" height="1" fill="#27CBC8" />
<rect x="20" y="19" width="1" height="1" fill="#27CBC8" />
<rect x="21" y="19" width="1" height="1" fill="#000000" />
<rect x="11" y="20" width="1" height="1" fill="#000000" />
<rect x="12" y="20" width="1" height="1" fill="#25CDCD" />
<rect x="13" y="20" width="1" height="1" fill="#E4EDFF" />
<rect x="14" y="20" width="1" height="1" fill="#E2ECFF" />
<rect x="15" y="20" width="1" height="1" fill="#E2ECFF" />
<rect x="16" y="20" width="1" height="1" fill="#E2ECFF" />
<rect x="17" y="20" width="1" height="1" fill="#E0EDFF" />
<rect x="18" y="20" width="1" height="1" fill="#DCEBFF" />
<rect x="19" y="20" width="1" height="1" fill="#27CBC8" />
<rect x="20" y="20" width="1" height="1" fill="#000000" />
<rect x="11" y="21" width="1" height="1" fill="#000000" />
<rect x="12" y="21" width="1" height="1" fill="#25CECB" />
<rect x="13" y="21" width="1" height="1" fill="#FFFFFF" />
<rect x="14" y="21" width="1" height="1" fill="#FFFFFF" />
<rect x="15" y="21" width="1" height="1" fill="#FFFFFF" />
<rect x="16" y="21" width="1" height="1" fill="#FFFFFF" />
<rect x="17" y="21" width="1" height="1" fill="#E2ECFF" />
<rect x="18" y="21" width="1" height="1" fill="#DCEBFF" />
<rect x="19" y="21" width="1" height="1" fill="#27CBC8" />
<rect x="20" y="21" width="1" height="1" fill="#000000" />
<rect x="11" y="22" width="1" height="1" fill="#000000" />
<rect x="12" y="22" width="1" height="1" fill="#FFFFFF" />
<rect x="13" y="22" width="1" height="1" fill="#E3EEFF" />
<rect x="14" y="22" width="1" height="1" fill="#E2EDFD" />
<rect x="15" y="22" width="1" height="1" fill="#E2ECFF" />
<rect x="16" y="22" width="1" height="1" fill="#E2EDFD" />
<rect x="17" y="22" width="1" height="1" fill="#E0EDFF" />
<rect x="18" y="22" width="1" height="1" fill="#DCEBFF" />
<rect x="19" y="22" width="1" height="1" fill="#DCEBFF" />
<rect x="20" y="22" width="1" height="1" fill="#000000" />
<rect x="11" y="23" width="1" height="1" fill="#000000" />
<rect x="12" y="23" width="1" height="1" fill="#FFFFFD" />
<rect x="13" y="23" width="1" height="1" fill="#FFFFFB" />
<rect x="14" y="23" width="1" height="1" fill="#FFFFFB" />
<rect x="15" y="23" width="1" height="1" fill="#FFFFFD" />
<rect x="16" y="23" width="1" height="1" fill="#FFFFFB" />
<rect x="17" y="23" width="1" height="1" fill="#E2EBFF" />
<rect x="18" y="23" width="1" height="1" fill="#DCEBFF" />
<rect x="19" y="23" width="1" height="1" fill="#DCEBFF" />
<rect x="20" y="23" width="1" height="1" fill="#000000" />
<rect x="10" y="24" width="1" height="1" fill="#000000" />
<rect x="11" y="24" width="1" height="1" fill="#27CBC8" />
<rect x="12" y="24" width="1" height="1" fill="#FFFFFD" />
<rect x="13" y="24" width="1" height="1" fill="#E2ECFF" />
<rect x="14" y="24" width="1" height="1" fill="#E0EDFD" />
<rect x="15" y="24" width="1" height="1" fill="#E3EBFF" />
<rect x="16" y="24" width="1" height="1" fill="#E2ECFF" />
<rect x="17" y="24" width="1" height="1" fill="#E2ECFF" />
<rect x="18" y="24" width="1" height="1" fill="#DCEBFF" />
<rect x="19" y="24" width="1" height="1" fill="#DCEBFF" />
<rect x="20" y="24" width="1" height="1" fill="#27CBC8" />
<rect x="21" y="24" width="1" height="1" fill="#000000" />
<rect x="10" y="25" width="1" height="1" fill="#000000" />
<rect x="11" y="25" width="1" height="1" fill="#27CBC8" />
<rect x="12" y="25" width="1" height="1" fill="#FFFDFF" />
<rect x="13" y="25" width="1" height="1" fill="#FFFDFF" />
<rect x="14" y="25" width="1" height="1" fill="#FFFDFF" />
<rect x="15" y="25" width="1" height="1" fill="#FFFDFF" />
<rect x="16" y="25" width="1" height="1" fill="#FFFEFF" />
<rect x="17" y="25" width="1" height="1" fill="#E1EEFF" />
<rect x="18" y="25" width="1" height="1" fill="#DCEBFF" />
<rect x="19" y="25" width="1" height="1" fill="#DCEBFF" />
<rect x="20" y="25" width="1" height="1" fill="#27CBC8" />
<rect x="21" y="25" width="1" height="1" fill="#000000" />
<rect x="10" y="26" width="1" height="1" fill="#000000" />
<rect x="11" y="26" width="1" height="1" fill="#27CBC8" />
<rect x="12" y="26" width="1" height="1" fill="#FCFFF9" />
<rect x="13" y="26" width="1" height="1" fill="#E2ECFF" />
<rect x="14" y="26" width="1" height="1" fill="#E2EDFD" />
<rect x="15" y="26" width="1" height="1" fill="#E2ECFF" />
<rect x="16" y="26" width="1" height="1" fill="#E2ECFF" />
<rect x="17" y="26" width="1" height="1" fill="#E3EDFF" />
<rect x="18" y="26" width="1" height="1" fill="#DCEBFF" />
<rect x="19" y="26" width="1" height="1" fill="#DCEBFF" />
<rect x="20" y="26" width="1" height="1" fill="#27CBC8" />
<rect x="21" y="26" width="1" height="1" fill="#000000" />
<rect x="10" y="27" width="1" height="1" fill="#000000" />
<rect x="11" y="27" width="1" height="1" fill="#27CBC8" />
<rect x="12" y="27" width="1" height="1" fill="#FDFFFF" />
<rect x="13" y="27" width="1" height="1" fill="#FDFFFF" />
<rect x="14" y="27" width="1" height="1" fill="#FDFFFF" />
<rect x="15" y="27" width="1" height="1" fill="#E0EDFF" />
<rect x="16" y="27" width="1" height="1" fill="#E2ECFF" />
<rect x="17" y="27" width="1" height="1" fill="#E3EDFF" />
<rect x="18" y="27" width="1" height="1" fill="#DCEBFF" />
<rect x="19" y="27" width="1" height="1" fill="#DCEBFF" />
<rect x="20" y="27" width="1" height="1" fill="#27CBC8" />
<rect x="21" y="27" width="1" height="1" fill="#000000" />
<rect x="10" y="28" width="1" height="1" fill="#000000" />
<rect x="11" y="28" width="1" height="1" fill="#27CBC8" />
<rect x="12" y="28" width="1" height="1" fill="#DCEBFF" />
<rect x="13" y="28" width="1" height="1" fill="#DCEBFF" />
<rect x="14" y="28" width="1" height="1" fill="#FFFEFF" />
<rect x="15" y="28" width="1" height="1" fill="#DCEBFF" />
<rect x="16" y="28" width="1" height="1" fill="#DCEBFF" />
<rect x="17" y="28" width="1" height="1" fill="#DCEBFF" />
<rect x="18" y="28" width="1" height="1" fill="#DCEBFF" />
<rect x="19" y="28" width="1" height="1" fill="#DCEBFF" />
<rect x="20" y="28" width="1" height="1" fill="#27CBC8" />
<rect x="21" y="28" width="1" height="1" fill="#00020A" />
<rect x="10" y="29" width="1" height="1" fill="#000000" />
<rect x="11" y="29" width="1" height="1" fill="#27CBC8" />
<rect x="12" y="29" width="1" height="1" fill="#27CBC8" />
<rect x="13" y="29" width="1" height="1" fill="#27CBC8" />
<rect x="14" y="29" width="1" height="1" fill="#27CBC8" />
<rect x="15" y="29" width="1" height="1" fill="#27CBC8" />
<rect x="16" y="29" width="1" height="1" fill="#27CBC8" />
<rect x="17" y="29" width="1" height="1" fill="#27CBC8" />
<rect x="18" y="29" width="1" height="1" fill="#27CBC8" />
<rect x="19" y="29" width="1" height="1" fill="#27CBC8" />
<rect x="20" y="29" width="1" height="1" fill="#27CBC8" />
<rect x="21" y="29" width="1" height="1" fill="#000000" />
<rect x="11" y="30" width="1" height="1" fill="#000000" />
<rect x="12" y="30" width="1" height="1" fill="#27CBC8" />
<rect x="13" y="30" width="1" height="1" fill="#27CBC8" />
<rect x="14" y="30" width="1" height="1" fill="#27CBC8" />
<rect x="15" y="30" width="1" height="1" fill="#27CBC8" />
<rect x="16" y="30" width="1" height="1" fill="#27CBC8" />
<rect x="17" y="30" width="1" height="1" fill="#27CBC8" />
<rect x="18" y="30" width="1" height="1" fill="#27CBC8" />
<rect x="19" y="30" width="1" height="1" fill="#27CBC8" />
<rect x="20" y="30" width="1" height="1" fill="#000000" />
<rect x="12" y="31" width="1" height="1" fill="#000000" />
<rect x="13" y="31" width="1" height="1" fill="#000000" />
<rect x="14" y="31" width="1" height="1" fill="#000000" />
<rect x="15" y="31" width="1" height="1" fill="#000000" />
<rect x="16" y="31" width="1" height="1" fill="#000000" />
<rect x="17" y="31" width="1" height="1" fill="#000000" />
<rect x="18" y="31" width="1" height="1" fill="#000000" />
<rect x="19" y="31" width="1" height="1" fill="#000000" />
</svg>